<svg width="1142.59px" height="1084.8px" style="align-content: normal; align-items: normal; align-self: auto; alignment-baseline: auto; animation-delay: 0s; animation-direction: normal; animation-duration: 0s; animation-fill-mode: none; animation-iteration-count: 1; animation-name: none; animation-play-state: running; animation-timing-function: ease; appearance: none; backdrop-filter: none; backface-visibility: visible; background-attachment: scroll; background-blend-mode: normal; background-clip: border-box; background-color: rgba(0, 0, 0, 0); background-image: none; background-origin: padding-box; background-position: 0% 0%; background-repeat: repeat; background-size: auto; baseline-shift: 0px; block-size: 1084.8px; border-block-end-color: rgb(9, 29, 66); border-block-end-style: none; border-block-end-width: 0px; border-block-start-color: rgb(9, 29, 66); border-block-start-style: none; border-block-start-width: 0px; border-bottom-color: rgb(9, 29, 66); border-bottom-left-radius: 0px; border-bottom-right-radius: 0px; border-bottom-style: none; border-bottom-width: 0px; border-collapse: separate; border-image-outset: 0; border-image-repeat: stretch; border-image-slice: 100%; border-image-source: none; border-image-width: 1; border-inline-end-color: rgb(9, 29, 66); border-inline-end-style: none; border-inline-end-width: 0px; border-inline-start-color: rgb(9, 29, 66); border-inline-start-style: none; border-inline-start-width: 0px; border-left-color: rgb(9, 29, 66); border-left-style: none; border-left-width: 0px; border-right-color: rgb(9, 29, 66); border-right-style: none; border-right-width: 0px; border-top-color: rgb(9, 29, 66); border-top-left-radius: 0px; border-top-right-radius: 0px; border-top-style: none; border-top-width: 0px; bottom: auto; box-shadow: none; box-sizing: border-box; break-after: auto; break-before: auto; break-inside: auto; buffered-rendering: auto; caption-side: top; caret-color: rgb(9, 29, 66); clear: none; clip: auto; clip-path: none; clip-rule: nonzero; color: rgb(9, 29, 66); color-interpolation: srgb; color-interpolation-filters: linearrgb; color-rendering: auto; column-count: auto; column-gap: normal; column-rule-color: rgb(9, 29, 66); column-rule-style: none; column-rule-width: 0px; column-span: none; column-width: auto; content: normal; cursor: auto; cx: 0px; cy: 0px; d: none; direction: ltr; display: flex; dominant-baseline: auto; empty-cells: show; fill: rgb(0, 0, 0); fill-opacity: 1; fill-rule: nonzero; filter: none; flex-basis: auto; flex-direction: row; flex-grow: 1; flex-shrink: 1; flex-wrap: nowrap; float: none; flood-color: rgb(0, 0, 0); flood-opacity: 1; font-family: Lato-Regular, Helvetica, Arial, sans-serif; font-kerning: auto; font-optical-sizing: auto; font-size: 16px; font-stretch: 100%; font-style: normal; font-variant: normal; font-variant-caps: normal; font-variant-east-asian: normal; font-variant-ligatures: normal; font-variant-numeric: normal; font-weight: 300; grid-auto-columns: auto; grid-auto-flow: row; grid-auto-rows: auto; grid-column-end: auto; grid-column-start: auto; grid-row-end: auto; grid-row-start: auto; grid-template-areas: none; grid-template-columns: none; grid-template-rows: none; height: 1084.8px; hyphens: manual; image-orientation: from-image; image-rendering: auto; inline-size: 1142.59px; isolation: auto; justify-content: normal; justify-items: normal; justify-self: auto; left: auto; letter-spacing: normal; lighting-color: rgb(255, 255, 255); line-break: auto; line-height: 28px; list-style-image: none; list-style-position: outside; list-style-type: disc; margin-block-end: 0px; margin-block-start: 0px; margin-bottom: 0px; margin-inline-end: 0px; margin-inline-start: 0px; margin-left: 0px; margin-right: 0px; margin-top: 0px; marker-end: none; marker-mid: none; marker-start: none; mask: none; mask-type: luminance; max-block-size: none; max-height: none; max-inline-size: none; max-width: none; min-block-size: auto; min-height: auto; min-inline-size: auto; min-width: auto; mix-blend-mode: normal; object-fit: fill; object-position: 50% 50%; offset-distance: 0px; offset-path: none; offset-rotate: auto 0deg; opacity: 1; order: 0; orphans: 2; outline-color: rgb(9, 29, 66); outline-offset: 0px; outline-style: none; outline-width: 0px; overflow-anchor: auto; overflow-wrap: normal; overflow-x: hidden; overflow-y: hidden; overscroll-behavior-block: auto; overscroll-behavior-inline: auto; padding-block-end: 0px; padding-block-start: 0px; padding-bottom: 0px; padding-inline-end: 0px; padding-inline-start: 0px; padding-left: 0px; padding-right: 0px; padding-top: 0px; paint-order: normal; perspective: none; perspective-origin: 571.297px 542.394px; pointer-events: auto; position: static; r: 0px; resize: none; right: auto; row-gap: normal; ruby-position: over; rx: auto; ry: auto; scroll-behavior: auto; scroll-margin-block-end: 0px; scroll-margin-block-start: 0px; scroll-margin-inline-end: 0px; scroll-margin-inline-start: 0px; scroll-padding-block-end: auto; scroll-padding-block-start: auto; scroll-padding-inline-end: auto; scroll-padding-inline-start: auto; shape-image-threshold: 0; shape-margin: 0px; shape-outside: none; shape-rendering: auto; speak: normal; stop-color: rgb(0, 0, 0); stop-opacity: 1; stroke: none; stroke-dasharray: none; stroke-dashoffset: 0px; stroke-linecap: butt; stroke-linejoin: miter; stroke-miterlimit: 4; stroke-opacity: 1; stroke-width: 1px; tab-size: 8; table-layout: auto; text-align: start; text-align-last: auto; text-anchor: start; text-decoration: none solid rgb(9, 29, 66); text-decoration-color: rgb(9, 29, 66); text-decoration-line: none; text-decoration-skip-ink: auto; text-decoration-style: solid; text-indent: 0px; text-overflow: clip; text-rendering: auto; text-shadow: none; text-size-adjust: 100%; text-transform: none; text-underline-position: auto; top: auto; touch-action: auto; transform: none; transform-origin: 571.297px 542.401px; transform-style: flat; transition-delay: 0s; transition-duration: 0s; transition-property: all; transition-timing-function: ease; unicode-bidi: normal; user-select: none; vector-effect: none; vertical-align: baseline; visibility: visible; white-space: normal; widows: 2; width: 1142.59px; will-change: auto; word-break: normal; word-spacing: 0px; writing-mode: horizontal-tb; x: 0px; y: 0px; z-index: auto; zoom: 1; -webkit-app-region: none; -webkit-border-horizontal-spacing: 0px; -webkit-border-image: none; -webkit-border-vertical-spacing: 0px; -webkit-box-align: stretch; -webkit-box-decoration-break: slice; -webkit-box-direction: normal; -webkit-box-flex: 0; -webkit-box-ordinal-group: 1; -webkit-box-orient: horizontal; -webkit-box-pack: start; -webkit-box-reflect: none; -webkit-font-smoothing: auto; -webkit-highlight: none; -webkit-hyphenate-character: auto; -webkit-line-break: auto; -webkit-line-clamp: none; -webkit-locale: &quot;en&quot;; -webkit-mask-box-image: none; -webkit-mask-box-image-outset: 0; -webkit-mask-box-image-repeat: stretch; -webkit-mask-box-image-slice: 0 fill; -webkit-mask-box-image-source: none; -webkit-mask-box-image-width: auto; -webkit-mask-clip: border-box; -webkit-mask-composite: source-over; -webkit-mask-image: none; -webkit-mask-origin: border-box; -webkit-mask-position: 0% 0%; -webkit-mask-repeat: repeat; -webkit-mask-size: auto; -webkit-print-color-adjust: economy; -webkit-rtl-ordering: logical; -webkit-tap-highlight-color: rgba(0, 0, 0, 0.18); -webkit-text-combine: none; -webkit-text-decorations-in-effect: none; -webkit-text-emphasis-color: rgb(9, 29, 66); -webkit-text-emphasis-position: over right; -webkit-text-emphasis-style: none; -webkit-text-fill-color: rgb(9, 29, 66); -webkit-text-orientation: vertical-right; -webkit-text-security: none; -webkit-text-stroke-color: rgb(9, 29, 66); -webkit-text-stroke-width: 0px; -webkit-user-drag: auto; -webkit-user-modify: read-only; -webkit-writing-mode: horizontal-tb;" version="1.1" xmlns="http://www.w3.org/2000/svg" xmlns:xlink="http://www.w3.org/1999/xlink"><style  type="text/css">a, abbr, acronym, address, applet, article, aside, audio, b, big, blockquote, body, canvas, caption, center, cite, code, dd, del, details, dfn, div, dl, dt, em, embed, fieldset, figcaption, figure, footer, form, h1, h2, h3, h4, h5, h6, header, hgroup, html, i, iframe, img, ins, kbd, label, legend, li, mark, menu, nav, object, ol, output, p, pre, q, ruby, s, samp, section, small, span, strike, strong, sub, summary, sup, table, tbody, td, tfoot, th, thead, time, tr, tt, u, ul, var, video { margin: 0px; padding: 0px; border: 0px; font: inherit; vertical-align: baseline; }
*, ::after, ::before { box-sizing: border-box; }
.complexViewerSVG { display: flex; flex-grow: 1; }
svg { user-select: none; }
.highlight { stroke: rgb(255, 255, 153); }
.link { stroke-linecap: round; stroke: black; }
.certain-link { opacity: 0.6; stroke-opacity: 0.6; }
.uncertain-link { opacity: 0.2; stroke-opacity: 0.6; }
.link-line { stroke-width: 1; }
.link-highlight { stroke-width: 10; stroke-opacity: 0; }
.label { font-size: 10pt; -webkit-font-smoothing: antialiased; text-shadow: white -1px -1px 0px, white 1px -1px 0px, white -1px 1px 0px, white 1px 1px 0px; fill: black; text-anchor: end; }
.scale-label { text-anchor: middle; }
.tooltip { text-anchor: start; }
.outline { stroke: black; stroke-width: 1; stroke-opacity: 1; fill: white; fill-opacity: 1; }
.participant-highlight { stroke-width: 5; fill: none; }
.tick { stroke: black; }
.tooltip-background { fill-opacity: 0.6; stroke-opacity: 1; stroke-width: 1; }
.tooltip-sub-background { fill: white; stroke: white; opacity: 1; stroke-width: 1; }</style><svg class="complexViewerSVG" width="100%" height="100%"><defs><pattern id="checkers_c1q binding region_#1f77b4" patternUnits="userSpaceOnUse" x="0" y="0" width="12" height="12" patternTransform="rotate(45)"><rect x="0" y="2" width="12" height="4" fill="#1f77b4"/><rect x="0" y="8" width="12" height="4" fill="#1f77b4"/></pattern><pattern id="checkers_c1r binding region_#aec7e8" patternUnits="userSpaceOnUse" x="0" y="0" width="12" height="12" patternTransform="rotate(45)"><rect x="0" y="2" width="12" height="4" fill="#aec7e8"/><rect x="0" y="8" width="12" height="4" fill="#aec7e8"/></pattern><pattern id="checkers_c1s binding region_#ff7f0e" patternUnits="userSpaceOnUse" x="0" y="0" width="12" height="12" patternTransform="rotate(45)"><rect x="0" y="2" width="12" height="4" fill="#ff7f0e"/><rect x="0" y="8" width="12" height="4" fill="#ff7f0e"/></pattern><pattern id="checkers_dimerization domain_#ffbb78" patternUnits="userSpaceOnUse" x="0" y="0" width="12" height="12" patternTransform="rotate(45)"><rect x="0" y="2" width="12" height="4" fill="#ffbb78"/><rect x="0" y="8" width="12" height="4" fill="#ffbb78"/></pattern><pattern id="checkers_dimerization region_#2ca02c" patternUnits="userSpaceOnUse" x="0" y="0" width="12" height="12" patternTransform="rotate(45)"><rect x="0" y="2" width="12" height="4" fill="#2ca02c"/><rect x="0" y="8" width="12" height="4" fill="#2ca02c"/></pattern><pattern id="checkers_cys-31_#98df8a" patternUnits="userSpaceOnUse" x="0" y="0" width="12" height="12" patternTransform="rotate(45)"><rect x="0" y="2" width="12" height="4" fill="#98df8a"/><rect x="0" y="8" width="12" height="4" fill="#98df8a"/></pattern><pattern id="checkers_c1qac binding region_#d62728" patternUnits="userSpaceOnUse" x="0" y="0" width="12" height="12" patternTransform="rotate(45)"><rect x="0" y="2" width="12" height="4" fill="#d62728"/><rect x="0" y="8" width="12" height="4" fill="#d62728"/></pattern><pattern id="checkers_cys-26_#ff9896" patternUnits="userSpaceOnUse" x="0" y="0" width="12" height="12" patternTransform="rotate(45)"><rect x="0" y="2" width="12" height="4" fill="#ff9896"/><rect x="0" y="8" width="12" height="4" fill="#ff9896"/></pattern><pattern id="checkers_c1qbc binding region_#9467bd" patternUnits="userSpaceOnUse" x="0" y="0" width="12" height="12" patternTransform="rotate(45)"><rect x="0" y="2" width="12" height="4" fill="#9467bd"/><rect x="0" y="8" width="12" height="4" fill="#9467bd"/></pattern><pattern id="checkers_c1ab binding region_#c5b0d5" patternUnits="userSpaceOnUse" x="0" y="0" width="12" height="12" patternTransform="rotate(45)"><rect x="0" y="2" width="12" height="4" fill="#c5b0d5"/><rect x="0" y="8" width="12" height="4" fill="#c5b0d5"/></pattern><pattern id="checkers_cys-32_#8c564b" patternUnits="userSpaceOnUse" x="0" y="0" width="12" height="12" patternTransform="rotate(45)"><rect x="0" y="2" width="12" height="4" fill="#8c564b"/><rect x="0" y="8" width="12" height="4" fill="#8c564b"/></pattern><pattern id="checkers_heme binding region_#4e79a7" patternUnits="userSpaceOnUse" x="0" y="0" width="12" height="12" patternTransform="rotate(45)"><rect x="0" y="2" width="12" height="4" fill="#4e79a7"/><rect x="0" y="8" width="12" height="4" fill="#4e79a7"/></pattern><pattern id="checkers_hba binding region_#f28e2c" patternUnits="userSpaceOnUse" x="0" y="0" width="12" height="12" patternTransform="rotate(45)"><rect x="0" y="2" width="12" height="4" fill="#f28e2c"/><rect x="0" y="8" width="12" height="4" fill="#f28e2c"/></pattern><pattern id="checkers_hbb binding region_#e15759" patternUnits="userSpaceOnUse" x="0" y="0" width="12" height="12" patternTransform="rotate(45)"><rect x="0" y="2" width="12" height="4" fill="#e15759"/><rect x="0" y="8" width="12" height="4" fill="#e15759"/></pattern></defs><g transform="translate(993, 1055)"><text font-size="8pt"><a href="https://academic.oup.com/bioinformatics/article/33/22/3673/4061280" target="_blank"><tspan x="0" dy="1.2em" style="text-decoration: underline">ComplexViewer 2.0.0-beta</tspan></a><tspan x="0" dy="1.2em">by <a href="http://rappsilberlab.org/" target="_blank">Rappsilber Laboratory</a></tspan></text></g><g id="container" transform="scale(1) translate(61.29701232910156 -8.954864501953125)"><g id="naryLinks"><path fill="#daf1e7" d="M795.7901128885965,417.7525293245331L794.7133562470898,410.95415544828427L791.5884867648454,404.8212537740987L786.7213884390309,399.95415544828427L780.5884867648454,396.8292859660397L773.7901128885965,395.7525293245331L467.27745555421205,355.71446788580556L185.79011288859647,395.75252932453316L178.9917390123476,396.8292859660398L172.85883733816206,399.9541554482843L167.99173901234764,404.82125377409875L164.8668695301031,410.9541554482843L163.79011288859647,417.75252932453316L164.8668695301031,424.550903200782L167.99173901234764,430.68380487496756L330.9488936814697,619.7599005899622L335.81599200728414,624.6269989157767L564.9240782063333,742.9936531309282L571.0569798805188,746.1185226131727L577.8553537567677,747.1952792546793L584.6537276330166,746.1185226131727L590.7866293072021,742.9936531309282L595.6537276330166,738.1265548051138L791.5884867648454,430.6838048749675L794.7133562470898,424.55090320078193Z"/><path fill="none" d="M795.7901128885965,417.7525293245331L794.7133562470898,410.95415544828427L791.5884867648454,404.8212537740987L786.7213884390309,399.95415544828427L780.5884867648454,396.8292859660397L773.7901128885965,395.7525293245331L467.27745555421205,355.71446788580556L185.79011288859647,395.75252932453316L178.9917390123476,396.8292859660398L172.85883733816206,399.9541554482843L167.99173901234764,404.82125377409875L164.8668695301031,410.9541554482843L163.79011288859647,417.75252932453316L164.8668695301031,424.550903200782L167.99173901234764,430.68380487496756L330.9488936814697,619.7599005899622L335.81599200728414,624.6269989157767L564.9240782063333,742.9936531309282L571.0569798805188,746.1185226131727L577.8553537567677,747.1952792546793L584.6537276330166,746.1185226131727L590.7866293072021,742.9936531309282L595.6537276330166,738.1265548051138L791.5884867648454,430.6838048749675L794.7133562470898,424.55090320078193Z"/></g><g id="p_pLinksWide"/><g class="highlights"><line class="link highlight link-highlight" stroke-width="10" x1="577.8553537567677" y1="725.1952792546793" x2="548.1448148289995" y2="632.2124748878831"/><line class="link highlight link-highlight" stroke-width="10" x1="548.1448148289995" y1="632.2124748878831" x2="441.7353783703351" y2="577.159381192736"/><line class="link highlight link-highlight" stroke-width="10" x1="548.1448148289995" y1="632.2124748878831" x2="603.1971250952408" y2="525.8101110183247"/><line class="link highlight link-highlight" stroke-width="10" x1="348.74726755771854" y1="606.8286250395278" x2="441.7353783703351" y2="577.159381192736"/><line class="link highlight link-highlight" stroke-width="10" x1="696.2524919481297" y1="496.32713139651037" x2="603.1971250952408" y2="525.8101110183247"/></g><g id="res_resLinks"><path class="link feature-link certain-link" d="M460.7627456294658,512.4559552586345"/><path class="link feature-link uncertain-link" d="M460.7627456294658,512.4559552586345 Q441.7353783703351,577.159381192736 441.7353783703351,577.159381192736 L441.7353783703351,577.159381192736 Q441.7353783703351,577.159381192736 460.7627456294658,512.4559552586345 Q479.79011288859647,447.7525293245331 189.79011288859647,427.75252932453316 L773.7901128885965,427.7525293245331 Q479.79011288859647,447.7525293245331 460.7627456294658,512.4559552586345"/><path class="link feature-link certain-link" d="M473.5337842214043,382.7334986051693"/><path class="link feature-link uncertain-link" d="M473.5337842214043,382.7334986051693 Q467.27745555421205,377.71446788580556 467.27745555421205,377.71446788580556 L467.27745555421205,377.71446788580556 Q467.27745555421205,377.71446788580556 473.5337842214043,382.7334986051693 Q479.79011288859647,387.7525293245331 189.79011288859647,407.75252932453316 L773.7901128885965,407.7525293245331 Q479.79011288859647,387.7525293245331 473.5337842214043,382.7334986051693"/><path class="link feature-link certain-link" d="M541.4936189919187,486.7813201714289"/><path class="link feature-link uncertain-link" d="M541.4936189919187,486.7813201714289 Q603.1971250952408,525.8101110183247 603.1971250952408,525.8101110183247 L603.1971250952408,525.8101110183247 Q603.1971250952408,525.8101110183247 541.4936189919187,486.7813201714289 Q479.79011288859647,447.7525293245331 189.79011288859647,427.75252932453316 L773.7901128885965,427.7525293245331 Q479.79011288859647,447.7525293245331 541.4936189919187,486.7813201714289"/></g><g id="p_pLinks"><line class="link link-line" stroke-width="1" x1="577.8553537567677" y1="725.1952792546793" x2="548.1448148289995" y2="632.2124748878831"/><line class="link link-line" stroke-width="1" x1="548.1448148289995" y1="632.2124748878831" x2="441.7353783703351" y2="577.159381192736"/><line class="link link-line" stroke-width="1" x1="548.1448148289995" y1="632.2124748878831" x2="603.1971250952408" y2="525.8101110183247"/><line class="link link-line" stroke-width="1" x1="348.74726755771854" y1="606.8286250395278" x2="441.7353783703351" y2="577.159381192736"/><line class="link link-line" stroke-width="1" x1="696.2524919481297" y1="496.32713139651037" x2="603.1971250952408" y2="525.8101110183247"/></g><g id="proteinUpper"><g transform="translate(548.1448148289995 632.2124748878831)"><rect fill="#FFFFFF" x="-15" y="-15" width="30" height="30" rx="15" ry="15"/><text x="0" y="10" class="label" transform="translate(-20,-5)">hbb_human</text><g opacity="1"><path d="M9.18485099360515e-16,-7.5 L1.83697019872103e-15,-15 A15,15 0 1 1 -0.6409461542237532,-14.986300011256475 L-0.3204730771118766,-7.493150005628237 A7.5,7.5 0 1 0 9.18485099360515e-16,-7.5 Z" stroke-width="1" fill-opacity="0.6" fill="url('#checkers_heme binding region_#4e79a7')" stroke="#4e79a7"/><path d="M0,0 L9.18485099360515e-16,-7.5 A7.5,7.5 0 1 1 -0.3204730771118766,-7.493150005628237 L0,0 A0,0 0 1 0 0,0 Z" stroke-width="1" fill-opacity="0.6" fill="url('#checkers_hba binding region_#f28e2c')" stroke="#f28e2c"/></g><rect stroke="black" stroke-width="1" fill="none" x="-15" y="-15" width="30" height="30" rx="15" ry="15"/></g><g transform="translate(441.7353783703351 577.159381192736)"><rect fill="#FFFFFF" x="-15" y="-15" width="30" height="30" rx="15" ry="15"/><text x="0" y="10" class="label" transform="translate(-20,-5)">hba_human</text><g opacity="1"><path d="M0,0 L9.18485099360515e-16,-7.5 A7.5,7.5 0 1 1 -0.33175010044034137,-7.492659198899802 L0,0 A0,0 0 1 0 0,0 Z" stroke-width="1" fill-opacity="0.6" fill="url('#checkers_hbb binding region_#e15759')" stroke="#e15759"/><path d="M9.18485099360515e-16,-7.5 L1.83697019872103e-15,-15 A15,15 0 1 1 -0.6635002008806827,-14.985318397799604 L-0.33175010044034137,-7.492659198899802 A7.5,7.5 0 1 0 9.18485099360515e-16,-7.5 Z" stroke-width="1" fill-opacity="0.6" fill="url('#checkers_heme binding region_#4e79a7')" stroke="#4e79a7"/></g><rect stroke="black" stroke-width="1" fill="none" x="-15" y="-15" width="30" height="30" rx="15" ry="15"/></g><g transform="translate(577.8553537567677 725.1952792546793)"><text x="0" y="10" class="label" transform="translate( -15 -5)">heme</text><polygon points="0, -10  8.66,5 -8.66,5" class="outline"/></g><g transform="translate(467.27745555421205 377.71446788580556)"><text x="0" y="10" class="label" transform="translate( -15 -5)">heme</text><polygon points="0, -10  8.66,5 -8.66,5" class="outline"/></g><g transform="translate(348.74726755771854 606.8286250395278)"><text x="0" y="10" class="label" transform="translate( -15 -5)">heme</text><polygon points="0, -10  8.66,5 -8.66,5" class="outline"/></g><g transform="translate(603.1971250952408 525.8101110183247)"><rect fill="#FFFFFF" x="-15" y="-15" width="30" height="30" rx="15" ry="15"/><text x="0" y="10" class="label" transform="translate(-20,-5)">hba_human</text><g opacity="1"><path d="M9.18485099360515e-16,-7.5 L1.83697019872103e-15,-15 A15,15 0 1 1 -0.6635002008806827,-14.985318397799604 L-0.33175010044034137,-7.492659198899802 A7.5,7.5 0 1 0 9.18485099360515e-16,-7.5 Z" stroke-width="1" fill-opacity="0.6" fill="url('#checkers_heme binding region_#4e79a7')" stroke="#4e79a7"/><path d="M0,0 L9.18485099360515e-16,-7.5 A7.5,7.5 0 1 1 -0.33175010044034137,-7.492659198899802 L0,0 A0,0 0 1 0 0,0 Z" stroke-width="1" fill-opacity="0.6" fill="url('#checkers_hbb binding region_#e15759')" stroke="#e15759"/></g><rect stroke="black" stroke-width="1" fill="none" x="-15" y="-15" width="30" height="30" rx="15" ry="15"/></g><g transform="translate(479.79011288859647 417.7525293245331)"><rect fill="#FFFFFF" x="-292" y="-10" width="588" height="20" rx="0" ry="0"/><text x="0" y="10" class="label" transform="matrix(1 0 0 1 -304 -5)">hbb_human</text><g opacity="1"><path d="M-292,10 L-292,0 L -292,0 L -174.39999999999998,0 L -56.79999999999998,0 L 60.80000000000001,0 L 178.40000000000003,0 L 296,0 L 296,10 L 178.40000000000003,10 L 60.80000000000001,10 L -56.79999999999998,10 L -174.39999999999998,10 L -292,10 Z" stroke-width="1" fill-opacity="0.6" fill="url('#checkers_heme binding region_#4e79a7')" stroke="#4e79a7"/><path d="M-292,0 L-292,-10 L -292,-10 L -174.39999999999998,-10 L -56.79999999999998,-10 L 60.80000000000001,-10 L 178.40000000000003,-10 L 296,-10 L 296,0 L 178.40000000000003,0 L 60.80000000000001,0 L -56.79999999999998,0 L -174.39999999999998,0 L -292,0 Z" stroke-width="1" fill-opacity="0.6" fill="url('#checkers_hba binding region_#f28e2c')" stroke="#f28e2c"/></g><rect stroke="black" stroke-width="1" fill="none" x="-292" y="-10" width="588" height="20" rx="0" ry="0"/><g opacity="1"><g transform="translate(-290 0)"><text class="label scale-label" x="0" y="24">1</text></g><line class="tick" x1="-254" y1="5" x2="-254" y2="10"/><line class="tick" x1="-214" y1="5" x2="-214" y2="10"/><g transform="translate(-214 0)"><text class="label scale-label" x="0" y="24">20</text></g><line class="tick" x1="-174" y1="5" x2="-174" y2="10"/><line class="tick" x1="-134" y1="5" x2="-134" y2="10"/><g transform="translate(-134 0)"><text class="label scale-label" x="0" y="24">40</text></g><line class="tick" x1="-94" y1="5" x2="-94" y2="10"/><line class="tick" x1="-54" y1="5" x2="-54" y2="10"/><g transform="translate(-54 0)"><text class="label scale-label" x="0" y="24">60</text></g><line class="tick" x1="-14" y1="5" x2="-14" y2="10"/><line class="tick" x1="26" y1="5" x2="26" y2="10"/><g transform="translate(26 0)"><text class="label scale-label" x="0" y="24">80</text></g><line class="tick" x1="66" y1="5" x2="66" y2="10"/><line class="tick" x1="106" y1="5" x2="106" y2="10"/><g transform="translate(106 0)"><text class="label scale-label" x="0" y="24">100</text></g><line class="tick" x1="146" y1="5" x2="146" y2="10"/><line class="tick" x1="186" y1="5" x2="186" y2="10"/><g transform="translate(186 0)"><text class="label scale-label" x="0" y="24">120</text></g><line class="tick" x1="226" y1="5" x2="226" y2="10"/><line class="tick" x1="266" y1="5" x2="266" y2="10"/><g transform="translate(294 0)"><text class="label scale-label" x="0" y="24">147</text></g></g></g><g transform="translate(696.2524919481297 496.32713139651037)"><text x="0" y="10" class="label" transform="translate( -15 -5)">heme</text><polygon points="0, -10  8.66,5 -8.66,5" class="outline"/></g></g><g id="res_resLinks"/></g></svg></svg>